<svg t="1607809912665" class="icon" viewBox="0 0 1024 1024" version="1.1"
    xmlns="http://www.w3.org/2000/svg" p-id="15831" width="20" height="20">
    <path d="M995.69376 284.169679l-92.190163 92.190164c-9.398997 9.398997-24.597375 9.398997-33.996373 0l-221.976315-221.976316c-9.398997-9.398997-9.398997-24.597375 0-33.996372l92.190163-92.190164c37.39601-37.39601 98.189523-37.39601 135.785512 0l120.187176 120.187177c37.595989 37.39601 37.595989 98.189523 0 135.785511zM568.339359 199.578705L43.195391 724.722673 0.799915 967.696748c-5.799381 32.796501 22.797568 61.193471 55.594068 55.594068l242.974075-42.595455 525.143967-525.143968c9.398997-9.398997 9.398997-24.597375 0-33.996373l-221.976315-221.976315c-9.598976-9.398997-24.797354-9.398997-34.196351 0zM248.17352 679.727474c-10.998826-10.998826-10.998826-28.596949 0-39.595776l307.96714-307.96714c10.998826-10.998826 28.596949-10.998826 39.595775 0s10.998826 28.596949 0 39.595775l-307.96714 307.967141c-10.998826 10.998826-28.596949 10.998826-39.595775 0zM175.981223 847.909529h95.989758v72.592254l-128.986237 22.597589-62.193364-62.193364L103.388968 751.919771H175.981223v95.989758z" fill="#ffffff" p-id="15832"></path>
</svg>