<?xml version="1.0" standalone="no"?><!DOCTYPE svg PUBLIC "-//W3C//DTD SVG 1.1//EN" "http://www.w3.org/Graphics/SVG/1.1/DTD/svg11.dtd"><svg t="1607735521883" class="icon" viewBox="0 0 1024 1024" version="1.1" xmlns="http://www.w3.org/2000/svg" p-id="2708" xmlns:xlink="http://www.w3.org/1999/xlink" width="200" height="200"><defs><style type="text/css"></style></defs><path d="M170.666667 682.666667m42.666666 0l85.333334 0q42.666667 0 42.666666 42.666666l0 85.333334q0 42.666667-42.666666 42.666666l-85.333334 0q-42.666667 0-42.666666-42.666666l0-85.333334q0-42.666667 42.666666-42.666666Z" fill="#3f81c1" p-id="2709"></path><path d="M170.666667 426.666667m42.666666 0l85.333334 0q42.666667 0 42.666666 42.666666l0 85.333334q0 42.666667-42.666666 42.666666l-85.333334 0q-42.666667 0-42.666666-42.666666l0-85.333334q0-42.666667 42.666666-42.666666Z" fill="#3f81c1" p-id="2710"></path><path d="M426.666667 682.666667m42.666666 0l85.333334 0q42.666667 0 42.666666 42.666666l0 85.333334q0 42.666667-42.666666 42.666666l-85.333334 0q-42.666667 0-42.666666-42.666666l0-85.333334q0-42.666667 42.666666-42.666666Z" fill="#3f81c1" p-id="2711"></path><path d="M426.666667 426.666667m42.666666 0l85.333334 0q42.666667 0 42.666666 42.666666l0 85.333334q0 42.666667-42.666666 42.666666l-85.333334 0q-42.666667 0-42.666666-42.666666l0-85.333334q0-42.666667 42.666666-42.666666Z" fill="#3f81c1" opacity=".3" p-id="2712"></path><path d="M170.666667 170.666667m42.666666 0l85.333334 0q42.666667 0 42.666666 42.666666l0 85.333334q0 42.666667-42.666666 42.666666l-85.333334 0q-42.666667 0-42.666666-42.666666l0-85.333334q0-42.666667 42.666666-42.666666Z" fill="#3f81c1" p-id="2713"></path><path d="M682.666667 682.666667m42.666666 0l85.333334 0q42.666667 0 42.666666 42.666666l0 85.333334q0 42.666667-42.666666 42.666666l-85.333334 0q-42.666667 0-42.666666-42.666666l0-85.333334q0-42.666667 42.666666-42.666666Z" fill="#3f81c1" p-id="2714"></path></svg>